<svg xmlns="http://www.w3.org/2000/svg" xmlns:xlink="http://www.w3.org/1999/xlink" width="1937.96" height="475.479" viewBox="0 0 1937.96 475.479">
  <defs>
    <filter id="wave1" x="0" y="29.972" width="1937.96" height="445.507" filterUnits="userSpaceOnUse">
      <feOffset dy="3" input="SourceAlpha"/>
      <feGaussianBlur stdDeviation="3" result="blur"/>
      <feFlood flood-opacity="0.161"/>
      <feComposite operator="in" in2="blur"/>
      <feComposite in="SourceGraphic"/>
    </filter>
    <filter id="wave3" x="0" y="0" width="1937.96" height="426.356" filterUnits="userSpaceOnUse">
      <feOffset dy="3" input="SourceAlpha"/>
      <feGaussianBlur stdDeviation="3" result="blur-2"/>
      <feFlood flood-opacity="0.161"/>
      <feComposite operator="in" in2="blur-2"/>
      <feComposite in="SourceGraphic"/>
    </filter>
    <filter id="wave2" x="0" y="174.972" width="1937.96" height="300.507" filterUnits="userSpaceOnUse">
      <feOffset dy="3" input="SourceAlpha"/>
      <feGaussianBlur stdDeviation="3" result="blur-3"/>
      <feFlood flood-opacity="0.161"/>
      <feComposite operator="in" in2="blur-3"/>
      <feComposite in="SourceGraphic"/>
    </filter>
  </defs>
  <g id="wave" transform="translate(8.96 -615.028)">
    <g transform="matrix(1, 0, 0, 1, -8.96, 615.03)" filter="url(#wave1)">
      <path id="wave1-2" data-name="wave1" d="M0,24.782l160-9.589c160-9.589,479.99-28.766,799.984,0s639.987,105.476,799.984,143.83l160,38.355V427.507H0Z" transform="translate(9 35.97)" fill="#009345" fill-rule="evenodd"/>
    </g>
    <g transform="matrix(1, 0, 0, 1, -8.96, 615.03)" filter="url(#wave3)">
      <path id="wave3-2" data-name="wave3" d="M.391,165.751l80-10.108c80-10.108,239.995-30.325,399.992-70.759S800.375-16.2,960.372,4.016s319.994,121.3,479.991,181.953,319.992,80.868,399.991,90.976l80,10.108v121.3H.391Z" transform="translate(8.61 6)" fill="#01cd59" fill-rule="evenodd"/>
    </g>
    <g transform="matrix(1, 0, 0, 1, -8.96, 615.03)" filter="url(#wave2)">
      <path id="wave2-2" data-name="wave2" d="M0,78.592,80,61.6c80-16.993,240-50.979,399.992-59.475s319.993,8.5,479.99,50.979,319.993,110.454,479.99,110.454S1759.964,95.585,1839.962,61.6l80-33.986V282.507H0Z" transform="translate(9 180.97)" fill="#02fe6d" fill-rule="evenodd"/>
    </g>
  </g>
</svg>
